<svg xmlns="http://www.w3.org/2000/svg" width="800" height="500" viewBox="0 0 800 500" role="img" aria-label="Horizon theme preview">
  <rect width="800" height="500" fill="#eef2f8"/>
  <rect x="60" y="50" width="680" height="400" rx="20" fill="#fff" stroke="#dce4ef"/>
  <rect x="60" y="50" width="280" height="400" rx="20" fill="#1a1d2e"/>
  <rect x="90" y="80" width="40" height="40" rx="20" fill="#1e8fff"/>
  <rect x="140" y="92" width="80" height="14" rx="4" fill="#fff" opacity="0.9"/>
  <rect x="90" y="140" width="160" height="18" rx="4" fill="#fff" opacity="0.85"/>
  <rect x="90" y="300" width="200" height="110" rx="10" fill="#243049"/>
  <rect x="380" y="90" width="300" height="20" rx="6" fill="#1a2233"/>
  <rect x="380" y="130" width="220" height="12" rx="4" fill="#9aa8ba"/>
  <circle cx="420" cy="190" r="28" fill="#1e8fff"/>
  <circle cx="500" cy="190" r="28" fill="#f3f6fb" stroke="#dce4ef" stroke-width="2"/>
  <circle cx="580" cy="190" r="28" fill="#f3f6fb" stroke="#dce4ef" stroke-width="2"/>
  <rect x="380" y="250" width="150" height="36" rx="8" fill="#f8fafc" stroke="#dce4ef"/>
  <rect x="550" y="250" width="150" height="36" rx="8" fill="#f8fafc" stroke="#dce4ef"/>
  <rect x="380" y="360" width="320" height="44" rx="10" fill="#1e8fff"/>
</svg>
